<?xml version="1.0" standalone="no"?>
<!DOCTYPE svg PUBLIC "-//W3C//DTD SVG 20010904//EN"
 "http://www.w3.org/TR/2001/REC-SVG-20010904/DTD/svg10.dtd">
<svg version="1.0" xmlns="http://www.w3.org/2000/svg"
 width="300.000000pt" height="300.000000pt" viewBox="0 0 300.000000 300.000000"
 preserveAspectRatio="xMidYMid meet">
<metadata>
Created by potrace 1.10, written by Peter Selinger 2001-2011
</metadata>
<g transform="translate(0.000000,300.000000) scale(0.100000,-0.100000)"
fill="#000000" stroke="none">
<path d="M570 2673 c-146 -51 -233 -182 -233 -353 -1 -95 12 -144 54 -210 35
-55 94 -99 112 -81 8 8 2 19 -26 42 -21 17 -50 54 -65 83 -25 46 -27 61 -27
161 0 100 2 115 28 167 32 65 88 116 163 149 76 34 200 32 276 -3 60 -28 84
-22 52 13 -42 46 -239 66 -334 32z"/>
<path d="M2140 2666 c-60 -30 -121 -107 -144 -180 -25 -79 -26 -101 -2 -101
14 0 22 12 32 52 43 169 167 251 322 213 72 -17 83 -35 24 -36 -145 -5 -322
-174 -322 -307 0 -16 -3 -27 -7 -25 -47 23 -107 48 -118 48 -36 0 -19 -21 42
-55 67 -37 227 -148 238 -164 2 -5 -9 -11 -26 -13 -24 -4 -41 4 -87 41 -59 48
-181 116 -233 131 -22 7 -29 5 -29 -6 0 -8 8 -14 18 -14 29 0 153 -69 230
-127 82 -63 175 -163 242 -261 44 -64 70 -87 70 -61 0 7 -33 55 -72 108 -89
117 -92 123 -39 80 52 -41 128 -140 216 -278 59 -93 64 -105 49 -116 -16 -11
-15 -19 9 -116 39 -157 51 -258 43 -373 -12 -170 -13 -170 5 -174 26 -5 31 22
36 183 5 148 1 187 -42 365 -6 28 -6 27 40 -43 26 -39 45 -46 45 -15 0 25
-109 216 -237 412 -28 45 -49 83 -46 86 8 7 88 -86 131 -152 34 -54 72 -77 72
-45 0 28 -89 147 -172 231 -48 49 -88 90 -88 91 0 1 17 5 38 7 21 3 58 15 82
27 49 24 62 21 35 -9 -17 -19 -15 -50 4 -50 13 0 74 87 94 135 41 97 39 220
-7 330 -21 50 -122 146 -188 179 -71 36 -191 37 -258 2z m322 -87 c30 -14 86
-88 99 -131 5 -18 7 -46 3 -63 -16 -79 -110 -183 -201 -225 -36 -16 -53 -29
-53 -42 0 -42 84 -8 168 67 29 26 52 43 52 37 0 -5 -19 -35 -41 -65 -41 -55
-48 -59 -124 -73 -16 -3 -34 -9 -39 -14 -9 -9 -154 117 -147 129 3 6 78 31 94
31 4 0 3 -9 -3 -19 -15 -28 -12 -41 8 -41 10 0 27 18 41 45 13 25 27 45 30 45
3 0 21 9 39 20 27 16 31 24 23 34 -7 8 -21 12 -34 8 -21 -5 -20 -4 6 27 43 51
29 84 -24 55 -35 -20 -39 -17 -23 15 8 16 28 34 44 41 17 7 30 19 30 26 0 8
10 14 23 14 12 0 29 4 37 10 24 15 -14 24 -50 12 -23 -8 -36 -7 -61 5 -37 18
-84 13 -140 -16 -29 -16 -37 -17 -32 -6 3 9 37 31 77 50 75 37 151 46 198 24z
m-112 -83 c0 -2 -18 -15 -40 -30 -22 -14 -40 -22 -40 -16 0 26 -38 5 -86 -47
-59 -64 -72 -59 -21 9 37 49 105 88 154 88 18 0 33 -2 33 -4z m-222 -103 c-13
-21 -30 -51 -37 -68 -8 -16 -16 -25 -18 -18 -5 13 18 62 49 106 29 41 34 26 6
-20z m187 -10 c49 -55 18 -123 -55 -123 -21 0 -45 -3 -54 -6 -10 -4 -18 1 -22
12 -3 11 -11 30 -17 43 -10 19 -9 25 1 29 18 6 62 51 62 62 0 6 14 10 30 10
21 0 39 -9 55 -27z m266 -129 c-12 -59 -38 -124 -50 -124 -5 0 -16 -3 -25 -6
-10 -4 -4 14 19 52 19 32 35 63 35 70 0 19 20 67 25 62 3 -3 1 -27 -4 -54z
m-426 29 c-4 -10 -10 -28 -12 -40 -6 -27 -16 -29 -33 -8 -11 13 -9 20 10 40
27 29 45 33 35 8z"/>
<path d="M740 2615 c-10 -12 -3 -19 43 -40 51 -24 126 -89 116 -99 -9 -9 -74
19 -118 51 -70 52 -168 58 -231 13 -48 -34 -84 -119 -77 -180 14 -118 112
-220 210 -220 29 0 27 -4 -70 -100 -151 -149 -232 -265 -186 -265 6 0 32 29
59 65 64 88 143 175 212 234 31 26 86 74 121 105 35 31 65 54 67 51 1 -3 11 4
23 14 23 21 51 102 51 148 0 21 5 28 20 28 13 0 20 -7 20 -20 0 -30 27 -24 45
9 12 25 29 34 117 61 57 18 106 35 111 37 4 2 7 0 7 -5 0 -4 -16 -16 -35 -25
-35 -16 -46 -42 -23 -49 7 -3 37 0 68 5 70 12 373 1 468 -16 71 -13 97 -8 74
15 -6 6 -63 18 -126 26 -64 9 -116 19 -116 23 0 15 130 22 173 9 83 -23 87
-23 87 -6 0 28 -48 49 -125 54 -90 6 -175 -13 -182 -39 -5 -17 -16 -19 -109
-19 -103 0 -104 0 -92 21 11 17 10 22 -7 35 -23 17 -85 11 -159 -17 -48 -18
-76 -17 -47 1 8 4 11 15 8 24 -6 15 -9 15 -31 1 -14 -9 -32 -27 -41 -41 -21
-32 -31 -30 -44 8 -6 17 -14 28 -17 25 -4 -4 -1 -20 6 -38 11 -26 11 -32 -1
-40 -27 -17 -50 -9 -67 22 -31 57 -60 85 -120 117 -69 37 -66 36 -82 17z m-25
-99 c47 -20 44 -27 -7 -20 -36 4 -48 1 -73 -20 l-30 -24 33 -47 c18 -26 36
-61 39 -78 l6 -32 -41 39 c-26 24 -46 36 -56 33 -24 -10 -11 -29 74 -106 52
-47 84 -69 94 -65 9 3 16 10 16 15 0 5 8 9 18 9 14 0 12 -4 -8 -20 -31 -24
-118 -27 -159 -5 -95 49 -140 188 -87 266 43 63 112 83 181 55z m99 -57 c22
-13 33 -26 29 -35 -7 -18 -5 -19 -40 21 -36 41 -36 42 11 14z m-76 -13 c45
-23 99 -96 72 -96 -6 0 -10 4 -10 8 0 4 -20 21 -44 36 -25 16 -53 37 -62 47
-16 18 -16 19 0 19 9 0 29 -6 44 -14z m172 -47 c0 -35 -16 -47 -23 -16 -2 12
-8 30 -12 39 -5 13 -2 15 14 11 15 -4 21 -13 21 -34z m-33 -42 c29 -21 30 -24
18 -53 -14 -35 -71 -75 -93 -66 -12 4 -10 7 8 14 19 7 22 13 17 44 -5 27 7 84
18 84 0 0 15 -10 32 -23z m-102 -34 c30 -32 49 -63 38 -62 -4 0 -25 21 -47 45
-42 47 -34 62 9 17z m-3 -85 c-23 -23 -78 34 -65 68 5 14 12 11 41 -20 22 -25
31 -41 24 -48z"/>
<path d="M1428 2383 c-6 -16 -11 -83 -12 -151 -1 -120 -1 -122 -19 -100 -58
75 -113 107 -184 108 -43 0 -93 -17 -93 -32 0 -4 -15 -8 -32 -8 -18 0 -51 -5
-73 -11 -112 -30 -355 -231 -490 -404 -98 -127 -235 -339 -235 -364 0 -26 21
-6 56 52 48 80 81 122 181 234 46 51 83 95 83 98 0 16 -22 -2 -66 -55 -65 -79
-79 -78 -17 2 109 140 280 296 405 370 67 40 78 43 143 43 52 -1 80 -6 111
-22 64 -34 105 -73 126 -120 17 -38 48 -60 48 -34 0 52 -65 130 -142 171 -62
33 -62 34 -34 41 19 5 46 2 79 -9 59 -20 104 -70 126 -142 8 -25 22 -52 31
-60 9 -9 19 -39 23 -69 7 -61 20 -82 39 -63 9 9 8 36 -6 121 -17 102 -18 111
-2 152 26 67 42 85 61 69 20 -17 25 -11 94 89 53 77 62 105 37 114 -40 16
-141 -76 -186 -168 -22 -46 -41 -59 -39 -27 0 9 6 56 13 105 7 48 10 90 7 92
-11 11 -22 3 -33 -22z"/>
<path d="M1153 2373 c-56 -19 -57 -42 -3 -33 110 18 154 28 158 38 5 17 -103
14 -155 -5z"/>
<path d="M1070 2291 c-70 -22 -107 -42 -200 -104 -78 -52 -228 -196 -269 -257
-14 -19 16 6 65 56 229 233 468 338 607 267 17 -9 33 -11 43 -5 14 8 14 10 0
25 -39 39 -155 47 -246 18z"/>
<path d="M1663 2226 c-84 -70 -134 -138 -112 -151 5 -4 35 21 66 54 30 34 75
73 99 87 25 15 43 31 41 38 -8 25 -44 14 -94 -28z"/>
<path d="M470 2165 c0 -17 48 -70 56 -62 4 4 -6 22 -24 40 -18 17 -32 27 -32
22z"/>
<path d="M1734 2151 c-73 -33 -174 -139 -174 -183 0 -26 25 -22 38 6 16 37 81
105 126 133 23 15 60 27 92 30 66 7 67 27 3 31 -27 1 -60 -5 -85 -17z"/>
<path d="M972 2115 c-54 -24 -162 -98 -162 -112 0 -18 35 -16 50 2 7 8 46 36
86 62 41 25 74 50 74 55 0 11 -9 10 -48 -7z"/>
<path d="M1850 2071 c-65 -21 -100 -41 -100 -58 0 -24 22 -24 77 3 54 27 116
34 177 23 35 -7 29 21 -8 36 -45 19 -78 18 -146 -4z"/>
<path d="M985 2047 c-51 -20 -75 -37 -75 -52 0 -21 30 -19 81 5 59 27 155 28
163 2 20 -61 127 -104 134 -54 5 34 -24 71 -71 93 -49 22 -183 25 -232 6z"/>
<path d="M2004 1996 c-7 -18 -9 -15 92 -148 41 -53 100 -150 138 -225 98 -195
126 -283 127 -404 1 -74 11 -93 30 -58 22 43 -4 184 -67 354 -6 16 -5 18 7 8
7 -7 19 -13 27 -13 32 0 -14 128 -81 228 -16 24 -27 46 -24 48 12 12 187 -215
187 -242 0 -12 42 -64 51 -64 32 0 -26 121 -115 239 -23 30 -52 72 -65 95 -35
61 -123 166 -138 166 -20 0 -16 -8 37 -69 65 -75 64 -87 -2 -24 -102 95 -191
143 -204 109z m132 -98 c30 -34 154 -229 154 -242 0 -17 -22 9 -73 87 -30 46
-76 109 -101 140 -25 31 -46 59 -46 62 0 12 39 -16 66 -47z"/>
<path d="M823 1934 c-118 -80 -384 -397 -356 -425 7 -7 32 19 81 88 78 108
186 223 211 223 9 0 47 28 84 61 54 49 65 64 56 75 -15 19 -16 18 -76 -22z"/>
<path d="M1674 1887 c-9 -25 14 -122 56 -237 53 -142 65 -181 90 -280 26 -107
36 -130 55 -130 23 0 19 54 -11 156 -15 49 -29 100 -32 114 -11 54 27 -3 100
-147 67 -133 73 -151 76 -217 2 -45 -2 -95 -13 -136 -21 -83 -23 -112 -7 -117
7 -3 21 15 35 44 20 43 22 63 21 188 0 109 -5 157 -22 219 -15 57 -17 75 -7
65 22 -22 70 -127 96 -206 17 -55 27 -73 41 -73 24 0 23 17 -7 97 -53 143
-138 273 -179 273 -21 0 -21 -3 9 -90 14 -40 23 -75 21 -77 -2 -3 -27 40 -56
95 -28 55 -69 121 -91 145 -51 58 -95 173 -51 134 23 -21 91 -22 118 -3 24 18
10 34 -16 18 -24 -15 -60 -16 -60 -2 0 6 7 10 16 10 8 0 28 13 43 28 l28 28
44 -28 c77 -48 97 -32 24 20 -26 18 -51 46 -59 67 -25 59 -93 70 -144 22 -34
-32 -53 -84 -47 -126 11 -65 -15 -7 -31 72 -16 76 -29 101 -40 74z m218 -62
c9 -19 9 -28 0 -37 -9 -9 -12 -7 -12 10 0 13 -7 25 -15 28 -20 8 -19 24 0 24
9 0 21 -11 27 -25z m-66 -41 c-2 -40 -12 -49 -36 -34 -12 8 -12 14 3 45 21 44
34 39 33 -11z"/>
<path d="M1075 1858 c-26 -17 -63 -34 -83 -37 -48 -8 -41 -27 9 -23 38 2 40 1
34 -20 -6 -21 -5 -22 8 -5 19 23 24 22 30 -12 4 -20 15 -32 36 -39 44 -16 68
-5 90 42 l21 41 0 -48 c0 -60 -17 -95 -89 -177 -31 -36 -78 -91 -105 -123 -56
-67 -71 -70 -28 -6 104 154 118 185 83 197 -25 8 -131 -117 -176 -210 -51
-103 -64 -163 -42 -185 13 -13 21 -6 71 59 30 40 70 89 88 109 18 20 59 69 92
108 32 40 60 70 62 68 2 -2 -14 -44 -37 -93 -41 -89 -99 -243 -99 -263 0 -6 6
-11 14 -11 7 0 21 21 31 48 46 122 168 402 176 402 8 0 -3 -33 -86 -254 -25
-68 -33 -102 -26 -109 7 -7 13 -3 20 14 56 132 178 485 170 493 -2 2 -18 7
-35 10 -29 6 -32 4 -39 -21 l-7 -28 -18 36 c-22 41 -59 69 -93 69 -13 0 -45
-14 -72 -32z m115 -55 c0 -19 -17 -16 -24 5 -3 9 -9 24 -12 32 -5 10 0 9 15
-4 11 -11 21 -25 21 -33z m-63 -6 c1 -18 -2 -24 -12 -21 -16 7 -27 32 -19 45
10 17 29 3 31 -24z m-137 -294 c0 -5 -16 -33 -36 -63 -20 -32 -32 -45 -29 -30
4 14 18 42 31 63 23 36 34 45 34 30z"/>
<path d="M799 1806 c-107 -81 -290 -346 -240 -346 7 0 20 14 29 32 54 99 178
265 190 253 2 -2 -11 -26 -31 -52 -46 -64 -119 -202 -111 -214 11 -18 22 -8
44 38 12 25 51 92 87 147 93 143 93 144 93 161 0 22 -12 19 -61 -19z"/>
<path d="M876 1710 c-84 -74 -228 -313 -243 -403 -10 -61 19 -46 88 48 59 79
90 108 74 68 -22 -57 -36 -117 -41 -188 -7 -95 4 -158 29 -163 16 -3 17 4 12
85 -7 95 8 197 42 288 15 39 33 61 91 108 69 56 89 87 57 87 -8 0 -33 -16 -55
-36 -22 -20 -40 -33 -40 -30 0 4 14 36 30 71 17 35 30 71 30 80 0 25 -37 17
-74 -15z m-19 -118 c-24 -50 -51 -87 -91 -123 -31 -28 -56 -48 -56 -45 0 22
167 252 176 243 3 -2 -11 -36 -29 -75z"/>
<path d="M2076 1721 c-3 -5 2 -15 11 -22 23 -20 113 -140 113 -152 0 -6 -24
14 -54 43 -64 63 -82 74 -104 65 -13 -5 -10 -11 18 -33 110 -84 184 -175 210
-255 14 -44 47 -50 42 -7 -4 44 -125 271 -170 321 -44 49 -56 57 -66 40z"/>
<path d="M1940 1612 c0 -5 14 -15 30 -21 17 -5 44 -20 61 -32 30 -21 44 -23
31 -3 -23 33 -122 79 -122 56z"/>
<path d="M2080 1535 c0 -3 12 -24 26 -47 35 -55 44 -88 52 -183 9 -106 27 -96
26 15 -2 92 -16 137 -60 189 -23 28 -44 40 -44 26z"/>
<path d="M1435 1476 c-102 -27 -162 -67 -197 -131 -10 -19 -10 -19 7 -5 17 14
18 13 13 -7 -4 -16 -2 -23 7 -23 10 0 12 -9 8 -33 -11 -69 55 -140 149 -161
50 -11 53 -13 59 -48 5 -33 2 -41 -26 -68 -52 -51 -153 -66 -222 -33 -41 19
-88 87 -97 141 -11 59 -16 72 -31 72 -25 0 -27 -20 -6 -88 38 -124 114 -185
231 -185 41 0 77 6 97 17 42 21 93 20 178 -4 38 -11 88 -20 109 -20 48 0 119
33 146 67 11 15 23 23 27 20 3 -4 -16 -35 -42 -69 -27 -35 -50 -65 -52 -67 -1
-2 -9 2 -17 8 -12 10 -28 6 -83 -17 -106 -46 -190 -72 -231 -72 -42 0 -106 27
-156 65 -36 27 -56 32 -56 13 0 -23 124 -108 157 -108 7 0 13 -5 13 -11 0 -17
-66 -2 -138 32 -42 19 -84 49 -123 89 -32 33 -61 55 -64 50 -15 -24 104 -144
181 -183 89 -43 202 -55 293 -30 48 13 9 -18 -79 -62 -93 -47 -111 -62 -90
-75 19 -12 111 31 206 95 155 105 345 330 316 375 -7 12 -7 21 0 28 12 12 38
115 38 152 0 14 -5 32 -10 40 -9 13 -11 13 -20 0 -5 -8 -10 -30 -10 -47 0 -74
-58 -172 -121 -204 -66 -33 -211 -16 -253 30 -29 32 -32 91 -6 124 27 34 37
29 17 -10 -17 -34 -12 -53 15 -53 30 0 153 130 173 184 16 40 16 47 0 92 -21
63 -37 80 -99 103 -71 26 -151 33 -211 17z m217 -44 c26 -11 52 -30 58 -42 17
-32 3 -100 -28 -132 -39 -42 -47 -34 -12 11 27 33 30 42 21 60 -8 13 -8 21 -2
21 27 0 -6 31 -58 54 -41 18 -84 28 -147 33 -65 5 -82 9 -64 14 45 14 183 3
232 -19z m-73 -29 c39 -10 5 -20 -89 -28 -90 -8 -97 -4 -34 19 24 9 31 15 19
15 -11 1 -49 -13 -83 -29 -74 -35 -72 -34 -72 -16 0 8 19 24 43 36 36 18 52
20 117 15 41 -3 86 -9 99 -12z m-145 -72 c3 -4 -3 -18 -14 -31 -10 -12 -21
-27 -24 -33 -3 -9 -7 -8 -14 2 -6 8 -20 12 -35 9 -22 -4 -28 0 -36 23 -9 28
-9 28 25 27 19 -1 37 2 41 5 9 10 51 8 57 -2z m132 -9 c-1 -19 -74 -92 -91
-92 -5 0 7 16 27 35 20 19 33 37 28 40 -19 12 -10 35 14 35 16 0 23 -5 22 -18z
m-66 -10 c0 -5 -19 -25 -42 -45 -38 -33 -40 -37 -19 -37 28 0 81 -36 81 -56 0
-18 -24 -18 -40 1 -9 11 -17 12 -31 4 -11 -5 -28 -7 -38 -4 -16 5 -17 9 -6 41
16 49 95 128 95 96z m100 -41 c0 -13 -71 -73 -78 -66 -6 6 57 75 70 75 4 0 8
-4 8 -9z m-220 -58 c0 -11 -4 -11 -20 -1 -11 7 -20 21 -20 32 0 18 1 19 20 1
11 -10 20 -24 20 -32z m310 22 c0 -8 -55 -55 -65 -55 -5 0 5 14 23 30 31 29
42 35 42 25z m30 -435 c0 -13 -78 -52 -93 -47 -9 3 64 48 91 56 1 1 2 -3 2 -9z
m-105 -60 c26 -29 7 -49 -30 -32 -14 7 -40 12 -58 13 -32 0 -31 0 13 19 58 23
54 23 75 0z"/>
<path d="M359 1334 c-44 -115 -49 -358 -9 -509 34 -127 123 -295 145 -274 2 3
-18 50 -45 105 -70 138 -82 191 -87 377 -4 128 -2 172 13 233 13 55 14 78 6
86 -8 8 -14 4 -23 -18z"/>
<path d="M2525 1212 c0 -116 -5 -153 -28 -242 -18 -69 -23 -108 -17 -114 18
-18 29 6 50 104 28 130 36 264 20 328 -6 29 -15 54 -19 56 -3 2 -6 -57 -6
-132z"/>
<path d="M957 1312 c-9 -10 -24 -49 -34 -86 -14 -59 -15 -77 -4 -129 30 -146
86 -247 211 -380 150 -160 295 -269 336 -253 27 11 13 25 -60 60 -60 29 -96
58 -198 158 -126 124 -154 159 -209 269 -53 103 -72 213 -50 289 5 18 9 4 14
-52 6 -75 39 -182 59 -194 25 -16 26 16 2 86 -19 55 -27 98 -28 159 -2 88 -11
104 -39 73z"/>
<path d="M2446 1288 c-2 -7 -7 -43 -10 -80 -7 -69 4 -95 24 -59 16 30 18 143
3 148 -7 3 -15 -1 -17 -9z"/>
<path d="M508 1253 c-20 -35 -58 -158 -58 -189 0 -15 -6 -24 -15 -24 -22 0
-32 -34 -34 -115 -1 -50 3 -76 13 -90 23 -29 30 -12 50 118 20 127 44 225 58
234 7 3 7 -7 2 -28 -17 -66 -9 -258 15 -348 24 -89 85 -221 121 -259 30 -32
45 -17 20 21 -60 91 -102 197 -120 300 -6 34 -13 74 -16 90 -3 15 -1 27 4 27
6 0 13 -19 17 -42 19 -112 95 -273 195 -410 45 -62 176 -198 191 -198 29 0 12
32 -53 99 -208 213 -315 447 -335 729 -6 83 -11 107 -23 110 -9 1 -23 -10 -32
-25z"/>
<path d="M2218 1153 c-8 -14 -2 -73 8 -76 12 -3 18 63 6 75 -5 5 -12 6 -14 1z"/>
<path d="M844 1060 c12 -78 75 -194 157 -290 65 -77 308 -320 319 -320 30 0
-4 45 -126 163 -196 190 -262 279 -309 414 -28 80 -52 99 -41 33z"/>
<path d="M669 994 c-53 -64 80 -313 251 -470 112 -103 262 -210 280 -199 20
12 8 26 -70 78 -186 124 -309 254 -389 410 -39 74 -60 142 -47 154 11 11 47
-30 111 -127 92 -138 196 -243 352 -353 66 -46 166 -97 192 -97 32 0 34 19 4
31 -75 31 -99 44 -178 98 -48 32 -115 84 -150 115 -66 58 -181 195 -205 244
-8 15 -31 51 -52 80 -41 55 -73 67 -99 36z"/>
<path d="M2071 919 c-110 -129 -305 -304 -543 -488 -115 -88 -125 -98 -112
-111 27 -27 602 466 685 587 52 75 31 84 -30 12z"/>
<path d="M2410 938 c0 -42 -24 -154 -51 -241 -14 -47 -18 -72 -11 -79 14 -14
26 11 52 103 25 89 39 249 21 249 -6 0 -11 -15 -11 -32z"/>
<path d="M2286 864 c-58 -128 -162 -288 -300 -459 -18 -23 -16 -55 3 -55 22 0
228 287 281 391 12 22 24 39 26 36 7 -7 -21 -115 -58 -220 -23 -68 -28 -91
-18 -100 9 -9 15 -7 26 7 18 25 53 118 64 171 48 228 53 295 23 295 -12 0 -28
-22 -47 -66z"/>
<path d="M2100 783 c-95 -102 -305 -269 -440 -351 -61 -37 -85 -68 -49 -66 70
5 590 427 576 467 -8 25 -28 14 -87 -50z"/>
<path d="M1840 832 c0 -4 -27 -37 -60 -74 -64 -71 -68 -78 -46 -78 19 0 52 32
99 94 41 54 45 66 22 66 -8 0 -15 -3 -15 -8z"/>
<path d="M1995 573 c-22 -15 -71 -54 -110 -86 -83 -70 -207 -152 -287 -191
-40 -19 -58 -33 -58 -46 0 -32 16 -31 86 8 113 63 155 91 247 169 70 59 87 69
87 53 0 -11 3 -20 6 -20 15 0 65 44 83 74 42 68 16 87 -54 39z"/>
</g>
</svg>
